<?xml version="1.0" encoding="UTF-8" standalone="no"?>
<svg
   xmlns:osb="http://www.openswatchbook.org/uri/2009/osb"
   xmlns:dc="http://purl.org/dc/elements/1.1/"
   xmlns:cc="http://creativecommons.org/ns#"
   xmlns:rdf="http://www.w3.org/1999/02/22-rdf-syntax-ns#"
   xmlns:svg="http://www.w3.org/2000/svg"
   xmlns="http://www.w3.org/2000/svg"
   xmlns:xlink="http://www.w3.org/1999/xlink"
   xmlns:sodipodi="http://sodipodi.sourceforge.net/DTD/sodipodi-0.dtd"
   xmlns:inkscape="http://www.inkscape.org/namespaces/inkscape"
   width="53.365028"
   height="35.349403"
   viewBox="0 0 53.365028 35.349403"
   fill="none"
   version="1.1"
   id="svg14"
   sodipodi:docname="logo-footer.svg"
   inkscape:version="1.0.1 (3bc2e813f5, 2020-09-07)">
  <metadata
     id="metadata20">
    <rdf:RDF>
      <cc:Work
         rdf:about="">
        <dc:format>image/svg+xml</dc:format>
        <dc:type
           rdf:resource="http://purl.org/dc/dcmitype/StillImage" />
        <dc:title />
      </cc:Work>
    </rdf:RDF>
  </metadata>
  <defs
     id="defs18">
    <linearGradient
       inkscape:collect="always"
       id="linearGradient3321">
      <stop
         style="stop-color:#000000;stop-opacity:1;"
         offset="0"
         id="stop3317" />
      <stop
         style="stop-color:#000000;stop-opacity:0;"
         offset="1"
         id="stop3319" />
    </linearGradient>
    <linearGradient
       id="linearGradient3297"
       osb:paint="solid">
      <stop
         style="stop-color:#000000;stop-opacity:1;"
         offset="0"
         id="stop3295" />
    </linearGradient>
    <filter
       inkscape:collect="always"
       style="color-interpolation-filters:sRGB"
       id="filter3283"
       x="-1.7308726e-05"
       width="1.0000346"
       y="-0.00012233248"
       height="1.0002447">
      <feGaussianBlur
         inkscape:collect="always"
         stdDeviation="0.0007068088"
         id="feGaussianBlur3285" />
    </filter>
    <linearGradient
       inkscape:collect="always"
       xlink:href="#linearGradient3321"
       id="linearGradient3325"
       x1="46.700317"
       y1="12.188449"
       x2="144.70866"
       y2="12.188449"
       gradientUnits="userSpaceOnUse" />
  </defs>
  <sodipodi:namedview
     pagecolor="#ffffff"
     bordercolor="#666666"
     borderopacity="1"
     objecttolerance="10"
     gridtolerance="10"
     guidetolerance="10"
     inkscape:pageopacity="0"
     inkscape:pageshadow="2"
     inkscape:window-width="1366"
     inkscape:window-height="712"
     id="namedview16"
     showgrid="false"
     fit-margin-top="0"
     fit-margin-left="0"
     fit-margin-right="0"
     fit-margin-bottom="0"
     inkscape:zoom="3.1064749"
     inkscape:cx="10.69606"
     inkscape:cy="33.588737"
     inkscape:window-x="0"
     inkscape:window-y="0"
     inkscape:window-maximized="1"
     inkscape:current-layer="svg14"
     inkscape:document-rotation="0" />
  <g
     id="g855">
    <path
       d="M 21.726789,18.2838 C 15.303489,20.281 4.9288885,18.2399 4.8367885,9.3449004 4.7445885,0.44983037 15.816789,5.7485204 15.816789,5.7485204 Z"
       fill="#ffc250"
       id="path4" />
    <path
       d="M 7.9597885,6.3542604 C 12.442789,5.5860804 15.847489,11.5265 19.614489,17.7232 c 3.7669,6.1968 13.5759,8.653 19.8435,3.4418 6.2675,-5.2111 8.9202,-14.3378696 1.2246,-19.7818296 -7.6955,-5.44396 -12.4993,6.91555 -19.1243,7.25528 -6.6249,0.33974 -6.6732,-4.58478 -13.5985005,-2.28419 z"
       fill="#ffd064"
       id="path6" />
    <path
       id="circle8"
       style="fill:#ffe19d"
       d="m 42.00084,9.6218996 a 1.96745,1.96745 0 0 1 -1.96745,1.9674504 1.96745,1.96745 0 0 1 -1.96745,-1.9674504 1.96745,1.96745 0 0 1 1.96745,-1.96745 1.96745,1.96745 0 0 1 1.96745,1.96745 z" />
    <path
       id="circle10"
       style="fill:#ffe19d"
       d="M 37.73798,11.0974 A 1.47559,1.47559 0 0 1 36.26239,12.57299 1.47559,1.47559 0 0 1 34.7868,11.0974 1.47559,1.47559 0 0 1 36.26239,9.6218097 1.47559,1.47559 0 0 1 37.73798,11.0974 Z" />
    <path
       id="circle12"
       style="fill:#ffe19d"
       d="m 40.033369,13.0648 a 1.14768,1.14768 0 0 1 -1.14768,1.14768 1.14768,1.14768 0 0 1 -1.14768,-1.14768 1.14768,1.14768 0 0 1 1.14768,-1.14768 1.14768,1.14768 0 0 1 1.14768,1.14768 z" />
    <g
       aria-label="PATATABIT"
       transform="matrix(0.54449471,0,0,0.50533767,-25.428075,25.685593)"
       id="text879"
       style="font-style:normal;font-variant:normal;font-weight:normal;font-stretch:normal;font-size:21.3333px;line-height:1.25;font-family:'Source Sans Variable';-inkscape-font-specification:'Source Sans Variable, @wght=900';font-variant-ligatures:normal;font-variant-caps:normal;font-variant-numeric:normal;font-variant-east-asian:normal;font-variation-settings:'wght' 900;white-space:pre;inline-size:100.161;fill:#ffd064;fill-opacity:1;stroke:#ffd064;stroke-width:1.26609;stroke-miterlimit:4;stroke-dasharray:none;stroke-opacity:1;filter:url(#filter3283)">
      <path
         d="m 46.702013,19.121771 h 3.669328 v -4.39466 h 1.493331 c 2.901328,0 5.546658,-1.471998 5.546658,-4.8639922 0,-3.4986611 -2.602663,-4.6079927 -5.631991,-4.6079927 h -5.077326 z m 3.669328,-7.295989 V 8.1564548 h 1.237331 c 1.407998,0 2.218663,0.4693326 2.218663,1.706664 0,1.2373312 -0.682665,1.9626632 -2.13333,1.9626632 z"
         style="font-style:normal;font-variant:normal;font-weight:normal;font-stretch:normal;font-size:21.3333px;font-family:'Source Sans Variable';-inkscape-font-specification:'Source Sans Variable, @wght=900';font-variant-ligatures:normal;font-variant-caps:normal;font-variant-numeric:normal;font-variant-east-asian:normal;font-variation-settings:'wght' 900;fill:#ffd064;fill-opacity:1;stroke:#ffd064;stroke-width:1.26609;stroke-miterlimit:4;stroke-dasharray:none;stroke-opacity:1"
         id="path860" />
      <path
         d="m 56.856635,19.121771 h 3.754661 l 1.578664,-6.741323 c 0.341333,-1.322664 0.682666,-2.9866618 0.981332,-4.3946596 h 0.08533 c 0.341333,1.3866645 0.682666,3.0719956 1.023999,4.3946596 l 1.578664,6.741323 h 3.88266 L 65.517955,5.2551261 h -4.437326 z m 3.029329,-2.943995 h 6.783989 v -2.837329 h -6.783989 z"
         style="font-style:normal;font-variant:normal;font-weight:normal;font-stretch:normal;font-size:21.3333px;font-family:'Source Sans Variable';-inkscape-font-specification:'Source Sans Variable, @wght=900';font-variant-ligatures:normal;font-variant-caps:normal;font-variant-numeric:normal;font-variant-east-asian:normal;font-variation-settings:'wght' 900;fill:#ffd064;fill-opacity:1;stroke:#ffd064;stroke-width:1.26609;stroke-miterlimit:4;stroke-dasharray:none;stroke-opacity:1"
         id="path862" />
      <path
         d="m 72.00323,19.121771 h 3.669327 V 8.3271212 h 3.669328 V 5.2551261 H 68.333902 v 3.0719951 h 3.669328 z"
         style="font-style:normal;font-variant:normal;font-weight:normal;font-stretch:normal;font-size:21.3333px;font-family:'Source Sans Variable';-inkscape-font-specification:'Source Sans Variable, @wght=900';font-variant-ligatures:normal;font-variant-caps:normal;font-variant-numeric:normal;font-variant-east-asian:normal;font-variation-settings:'wght' 900;fill:#ffd064;fill-opacity:1;stroke:#ffd064;stroke-width:1.26609;stroke-miterlimit:4;stroke-dasharray:none;stroke-opacity:1"
         id="path864" />
      <path
         d="m 78.787182,19.121771 h 3.754661 l 1.578664,-6.741323 c 0.341333,-1.322664 0.682665,-2.9866618 0.981332,-4.3946596 h 0.08533 c 0.341333,1.3866645 0.682665,3.0719956 1.023998,4.3946596 l 1.578664,6.741323 h 3.882661 L 87.448502,5.2551261 h -4.437327 z m 3.029329,-2.943995 H 88.6005 v -2.837329 h -6.783989 z"
         style="font-style:normal;font-variant:normal;font-weight:normal;font-stretch:normal;font-size:21.3333px;font-family:'Source Sans Variable';-inkscape-font-specification:'Source Sans Variable, @wght=900';font-variant-ligatures:normal;font-variant-caps:normal;font-variant-numeric:normal;font-variant-east-asian:normal;font-variation-settings:'wght' 900;fill:#ffd064;fill-opacity:1;stroke:#ffd064;stroke-width:1.26609;stroke-miterlimit:4;stroke-dasharray:none;stroke-opacity:1"
         id="path866" />
      <path
         d="m 93.93378,19.121771 h 3.669327 V 8.3271212 h 3.669323 V 5.2551261 H 90.264452 v 3.0719951 h 3.669328 z"
         style="font-style:normal;font-variant:normal;font-weight:normal;font-stretch:normal;font-size:21.3333px;font-family:'Source Sans Variable';-inkscape-font-specification:'Source Sans Variable, @wght=900';font-variant-ligatures:normal;font-variant-caps:normal;font-variant-numeric:normal;font-variant-east-asian:normal;font-variation-settings:'wght' 900;fill:#ffd064;fill-opacity:1;stroke:#ffd064;stroke-width:1.26609;stroke-miterlimit:4;stroke-dasharray:none;stroke-opacity:1"
         id="path868" />
      <path
         d="m 100.71773,19.121771 h 3.75466 l 1.57867,-6.741323 c 0.34133,-1.322664 0.68266,-2.9866618 0.98133,-4.3946596 h 0.0853 c 0.34133,1.3866645 0.68267,3.0719956 1.024,4.3946596 l 1.57866,6.741323 h 3.88266 L 109.37905,5.2551261 h -4.43733 z m 3.02933,-2.943995 h 6.78399 v -2.837329 h -6.78399 z"
         style="font-style:normal;font-variant:normal;font-weight:normal;font-stretch:normal;font-size:21.3333px;font-family:'Source Sans Variable';-inkscape-font-specification:'Source Sans Variable, @wght=900';font-variant-ligatures:normal;font-variant-caps:normal;font-variant-numeric:normal;font-variant-east-asian:normal;font-variation-settings:'wght' 900;fill:#ffd064;fill-opacity:1;stroke:#ffd064;stroke-width:1.26609;stroke-miterlimit:4;stroke-dasharray:none;stroke-opacity:1"
         id="path870" />
      <path
         d="m 114.9257,19.121771 h 5.41866 c 2.98666,0 5.46132,-1.237332 5.46132,-4.095994 0,-1.834663 -1.06666,-2.858662 -2.38933,-3.242661 v -0.08533 c 1.06667,-0.426666 1.74933,-1.7919976 1.74933,-2.9866624 0,-2.7306623 -2.34666,-3.4559945 -5.24799,-3.4559945 h -4.99199 z m 3.66933,-8.447987 V 8.0711216 h 1.23733 c 1.19466,0 1.74933,0.3413328 1.74933,1.1946648 0,0.8533316 -0.55467,1.4079976 -1.74933,1.4079976 z m 0,5.631991 V 13.36178 h 1.49333 c 1.45066,0 2.13333,0.383999 2.13333,1.407998 0,1.023998 -0.68267,1.535997 -2.13333,1.535997 z"
         style="font-style:normal;font-variant:normal;font-weight:normal;font-stretch:normal;font-size:21.3333px;font-family:'Source Sans Variable';-inkscape-font-specification:'Source Sans Variable, @wght=900';font-variant-ligatures:normal;font-variant-caps:normal;font-variant-numeric:normal;font-variant-east-asian:normal;font-variation-settings:'wght' 900;fill:#ffd064;fill-opacity:1;stroke:#ffd064;stroke-width:1.26609;stroke-miterlimit:4;stroke-dasharray:none;stroke-opacity:1"
         id="path872" />
      <path
         d="M 127.98167,19.121771 H 131.651 V 5.2551261 h -3.66933 z"
         style="font-style:normal;font-variant:normal;font-weight:normal;font-stretch:normal;font-size:21.3333px;font-family:'Source Sans Variable';-inkscape-font-specification:'Source Sans Variable, @wght=900';font-variant-ligatures:normal;font-variant-caps:normal;font-variant-numeric:normal;font-variant-east-asian:normal;font-variation-settings:'wght' 900;fill:#ffd064;fill-opacity:1;stroke:#ffd064;stroke-width:1.26609;stroke-miterlimit:4;stroke-dasharray:none;stroke-opacity:1"
         id="path874" />
      <path
         d="m 137.36832,19.121771 h 3.66933 V 8.3271212 h 3.66933 V 5.2551261 H 133.699 v 3.0719951 h 3.66932 z"
         style="font-style:normal;font-variant:normal;font-weight:normal;font-stretch:normal;font-size:21.3333px;font-family:'Source Sans Variable';-inkscape-font-specification:'Source Sans Variable, @wght=900';font-variant-ligatures:normal;font-variant-caps:normal;font-variant-numeric:normal;font-variant-east-asian:normal;font-variation-settings:'wght' 900;fill:#ffd064;fill-opacity:1;stroke:#ffd064;stroke-width:1.26609;stroke-miterlimit:4;stroke-dasharray:none;stroke-opacity:1"
         id="path876" />
    </g>
  </g>
</svg>
