<?xml version="1.0" encoding="UTF-8" standalone="no"?>
<svg
   xmlns:dc="http://purl.org/dc/elements/1.1/"
   xmlns:cc="http://creativecommons.org/ns#"
   xmlns:rdf="http://www.w3.org/1999/02/22-rdf-syntax-ns#"
   xmlns:svg="http://www.w3.org/2000/svg"
   xmlns="http://www.w3.org/2000/svg"
   xmlns:sodipodi="http://sodipodi.sourceforge.net/DTD/sodipodi-0.dtd"
   xmlns:inkscape="http://www.inkscape.org/namespaces/inkscape"
   width="64.577141"
   height="38.226826"
   viewBox="0 0 64.57714 38.226826"
   fill="none"
   version="1.1"
   id="svg12"
   sodipodi:docname="patatabit.svg"
   inkscape:version="1.0.1 (3bc2e813f5, 2020-09-07, custom)"
   inkscape:export-filename="/home/raul/Documents/patatabit.png"
   inkscape:export-xdpi="94.477219"
   inkscape:export-ydpi="94.477219">
  <metadata
     id="metadata18">
    <rdf:RDF>
      <cc:Work
         rdf:about="">
        <dc:format>image/svg+xml</dc:format>
        <dc:type
           rdf:resource="http://purl.org/dc/dcmitype/StillImage" />
        <dc:title />
      </cc:Work>
    </rdf:RDF>
  </metadata>
  <defs
     id="defs16" />
  <sodipodi:namedview
     pagecolor="#ffffff"
     bordercolor="#666666"
     borderopacity="1"
     objecttolerance="10"
     gridtolerance="10"
     guidetolerance="10"
     inkscape:pageopacity="0"
     inkscape:pageshadow="2"
     inkscape:window-width="1366"
     inkscape:window-height="712"
     id="namedview14"
     showgrid="false"
     fit-margin-top="0"
     fit-margin-left="0"
     fit-margin-right="0"
     fit-margin-bottom="0"
     inkscape:zoom="2.5117508"
     inkscape:cx="11.954704"
     inkscape:cy="-2.1018285"
     inkscape:window-x="0"
     inkscape:window-y="0"
     inkscape:window-maximized="1"
     inkscape:current-layer="svg12"
     inkscape:document-rotation="0" />
  <g
     id="g837">
    <path
       d="M 37.688687,32.297964 C 47.908823,35.47682 64.415718,32.227913 64.562413,18.070634 64.708951,3.9129229 47.091952,12.346452 47.091952,12.346452 Z"
       fill="#ffc250"
       id="path2"
       style="fill:#f5ba4c;fill-opacity:1;stroke:#000000;stroke-width:0.0276392;stroke-miterlimit:4;stroke-dasharray:none"
       inkscape:export-filename="/home/raul/Documents/patatabit.png"
       inkscape:export-xdpi="94.477219"
       inkscape:export-ydpi="94.477219" />
    <path
       d="M 59.593237,10.127276 C 52.46033,8.9046259 47.043106,18.359574 41.049577,28.22251 35.056052,38.085273 19.448762,41.994612 9.4764788,33.700511 -0.49584757,25.40625 -4.7164458,10.879917 7.5279341,2.2151842 19.772234,-6.4495649 27.415729,13.222132 37.956785,13.762851 48.497524,14.303587 48.574536,6.4656082 59.593237,10.127276 Z"
       fill="#ffd064"
       id="path4"
       style="stroke:#000000;stroke-width:0.0276392;stroke-miterlimit:4;stroke-dasharray:none"
       inkscape:export-filename="/home/raul/Documents/patatabit.png"
       inkscape:export-xdpi="94.477219"
       inkscape:export-ydpi="94.477219"
       inkscape:original-d="M 59.060639,10.036767 C 51.991479,8.8250436 46.62267,18.19549 40.682707,27.97028 34.742747,37.744897 19.274942,41.619297 9.3917859,33.399322 -0.49141614,25.179188 -4.674294,10.78268 7.4606555,2.1953866 19.595524,-6.3919237 27.170707,13.103962 37.617556,13.63985 48.06409,14.175754 48.140413,6.4078236 59.060639,10.036767 Z" />
    <g
       aria-label="$"
       transform="rotate(-58.611317)"
       id="text839"
       style="font-style:normal;font-weight:normal;font-size:39.1603px;line-height:1.25;font-family:sans-serif;fill:#000000;fill-opacity:1;stroke:none;stroke-width:0.979009">
      <path
         d="m -6.7400399,39.290292 q -1.9312454,-0.210334 -3.5565511,-0.975183 -1.606184,-0.76485 -2.696095,-1.950367 l 0.726607,-1.128153 q 0.191213,-0.286819 0.420668,-0.420667 0.229455,-0.15297 0.573637,-0.15297 0.248576,0 0.61188,0.267697 0.382425,0.267698 0.9369405,0.61188 0.554516,0.344182 1.3193656,0.688365 0.7839709,0.325061 1.8547604,0.458909 l 0.4971522,-6.902768 q -1.1090319,-0.286818 -2.1989427,-0.669243 -1.0899107,-0.401546 -1.950367,-1.051668 -0.860455,-0.650122 -1.39585,-1.606184 -0.516274,-0.975184 -0.516274,-2.447519 0,-1.051669 0.420668,-2.065094 0.439788,-1.032547 1.300244,-1.854761 0.8604559,-0.822213 2.1607003,-1.357608 1.3002444,-0.535395 3.0402773,-0.631001 l 0.2868186,-3.900733 h 1.9312453 l -0.2868186,3.958097 q 1.6061842,0.210334 2.92554984,0.822213 1.31936561,0.61188 2.23718516,1.5297 l -0.7648496,1.24288 q -0.15296995,0.229455 -0.32506112,0.382425 -0.15296992,0.133849 -0.42066729,0.133849 -0.22945489,0 -0.55451599,-0.191213 Q -0.46827295,21.870842 -0.92718273,21.603144 -1.3669713,21.335447 -1.9979722,21.06775 -2.6098519,20.800052 -3.4511865,20.685325 l -0.4589098,6.501222 q 1.1281532,0.325061 2.2371852,0.726607 1.10903195,0.382425 1.98860902,1.013426 0.89869828,0.611879 1.43409308,1.567941 0.554516,0.936941 0.554516,2.332792 0,1.300244 -0.5162735,2.428397 -0.4971523,1.128154 -1.4340931,2.007731 -0.9369408,0.860455 -2.2371852,1.414971 -1.3002443,0.535395 -2.9064286,0.650123 l -0.2868186,3.977218 h -1.9503666 z m 6.09967578,-5.984948 q 0,-0.650122 -0.28681861,-1.109032 Q -1.1948801,31.718281 -1.6729111,31.374098 -2.1318209,31.029916 -2.7819431,30.78134 -3.412944,30.513643 -4.1395512,30.303309 l -0.4589098,6.405616 q 1.0134258,-0.07648 1.7591542,-0.363304 0.7457284,-0.30594 1.2237594,-0.745728 0.4971523,-0.45891 0.72660715,-1.032547 0.24857613,-0.592759 0.24857613,-1.262002 z M -8.9963464,23.744723 q 0,0.592759 0.2294549,1.051669 0.2485762,0.439788 0.6692435,0.78397 0.4397885,0.325062 1.0134257,0.592759 0.5927585,0.248576 1.2620019,0.45891 l 0.4397886,-5.984949 q -0.9751833,0.09561 -1.663548,0.382425 -0.6883647,0.267697 -1.1281532,0.688365 -0.4206673,0.420667 -0.6310009,0.936941 -0.1912125,0.516273 -0.1912125,1.08991 z"
         style="font-style:normal;font-variant:normal;font-weight:normal;font-stretch:normal;font-family:Carlito;-inkscape-font-specification:Carlito;stroke-width:0.979009"
         id="path839" />
    </g>
  </g>
</svg>
